<svg xmlns="http://www.w3.org/2000/svg" viewBox="0 0 295.34 275.16"><defs><style>.cls-1{fill:#7ad400;}.cls-2{fill:#007934;}.cls-3{fill:none;stroke:#007934;stroke-linecap:round;stroke-linejoin:round;stroke-width:6px;}</style></defs><g id="Iconoes-generales"><circle class="cls-1" cx="108.3" cy="191.55" r="15.12"/><path class="cls-2" d="M108.92,199.28c-1.12,0-1.64-.76-1.64-2.3v-9.06H107c-1.42,0-2.18-.52-2.18-1.5s.76-1.5,2.3-1.5h1.62c1.36,0,1.84.7,1.84,2.3V197C110.56,198.52,110,199.28,108.92,199.28Z"/><path class="cls-2" d="M155.63,197.64c0,1-.76,1.5-2.3,1.5h-5.74c-1.3,0-1.94-.48-1.94-1.5,0-.8,1-1.74,2.58-3.5,2.28-2.52,3.6-4.12,3.6-5.24a1.25,1.25,0,0,0-1.22-1.36c-.62,0-1.18.48-1.54,1.46s-.72,1.64-1.58,1.64a1.55,1.55,0,0,1-1.6-1.66,4.63,4.63,0,0,1,1-2.62,4.77,4.77,0,0,1,3.82-1.84,4.22,4.22,0,0,1,4.56,4.22c0,2.28-1.82,4.32-4.92,7.4h3C154.87,196.14,155.63,196.62,155.63,197.64Z"/><path class="cls-3" d="M67.89,182.29l-13.9,8a1.44,1.44,0,0,0,0,2.48l13.9,8"/><path class="cls-3" d="M180.08,182.29l13.89,8a1.43,1.43,0,0,1,0,2.48l-13.89,8"/><path class="cls-2" d="M231.26,191.55h-9.45c-.26,0-.52,0-.77,0v2.7c0,13.81-11.61,25-25.87,25H58.84C44.57,219.26,33,208,33,194.21v-117c0-13.82,11.6-25.06,25.87-25.06H195.17c14.26,0,25.87,11.24,25.87,25.06v7.62c.25,0,.51,0,.77,0h9.45c.26,0,.52,0,.78,0V77.21c0-19.89-16.54-36.06-36.87-36.06H58.84C38.51,41.15,22,57.32,22,77.21v117c0,19.88,16.54,36,36.87,36H195.17c20.33,0,36.87-16.17,36.87-36v-2.7C231.78,191.53,231.52,191.55,231.26,191.55Z"/><rect class="cls-2" x="225.4" y="175.2" width="2.27" height="1.35"/><path class="cls-2" d="M182.71,163.33a11.33,11.33,0,0,1,2.61-7.27c-.33-.77-.64-1.54-.93-2.33H184a11.66,11.66,0,0,1-1.68-.13,20.62,20.62,0,0,1-6.79,1.13H157.47v-21.1h15.11v-.76A11.4,11.4,0,0,1,179,122.63H157.47v-19h28.74l6.52-6.52a11.43,11.43,0,0,1,11.72-2.73c-.9-13.76-13.53-24.7-28.93-24.7h-97c-16,0-29,11.78-29,26.26v43.53c0,14.48,13,26.26,29,26.26h97a31.78,31.78,0,0,0,7.3-.84A11.46,11.46,0,0,1,182.71,163.33Zm-83.27-8.6h-21c-9.92,0-18-6.85-18-15.26v-5.84H99.44Zm0-32.1H60.51v-19H99.44Zm47,32.1h-36v-21.1h36Zm0-32.1h-36v-19h36Z"/><path class="cls-1" d="M269.08,129H263a37.25,37.25,0,0,0-4.69-10.89l3.44-3.44a3.9,3.9,0,0,0,0-5.53L255,102.41a3.91,3.91,0,0,0-5.52,0L245.92,106a37.14,37.14,0,0,0-10.75-4.36V96.2a3.91,3.91,0,0,0-3.91-3.91h-9.45a3.91,3.91,0,0,0-3.91,3.91v5.47a37,37,0,0,0-10.7,4.38l-3.63-3.64a3.92,3.92,0,0,0-5.53,0l-6.69,6.69a3.92,3.92,0,0,0,0,5.53l3.53,3.53a37.27,37.27,0,0,0-4.64,10.8H184a3.91,3.91,0,0,0-3.91,3.91v9.45a3.91,3.91,0,0,0,3.91,3.91h6a37.55,37.55,0,0,0,4.47,11.23l-3.11,3.11a3.91,3.91,0,0,0,0,5.52l6.69,6.69a3.9,3.9,0,0,0,5.53,0l3-3a37.08,37.08,0,0,0,11.36,4.8v5.53a3.91,3.91,0,0,0,3.91,3.91h9.45a3.91,3.91,0,0,0,3.91-3.91v-5.49a37.13,37.13,0,0,0,11.42-4.78l2.92,2.91a3.89,3.89,0,0,0,5.52,0l6.69-6.69a3.89,3.89,0,0,0,0-5.52l-3-3a37.19,37.19,0,0,0,4.52-11.32h5.86a3.91,3.91,0,0,0,3.91-3.91v-9.45A3.91,3.91,0,0,0,269.08,129Zm-41.44,30.2a21,21,0,1,1,21-21A21,21,0,0,1,227.64,159.16Z"/></g></svg>