<svg xmlns="http://www.w3.org/2000/svg" viewBox="0 0 295.34 275.16"><defs><style>.cls-1{fill:#007934;}</style></defs><g id="Iconoes-generales"><path class="cls-1" d="M152.14,216.49H137a11.76,11.76,0,0,1-11.75-11.75v-4.66a65.11,65.11,0,0,1-11.81-5l-1.74,1.74a11.75,11.75,0,0,1-16.62,0l-10.7-10.69a11.78,11.78,0,0,1,0-16.63l2-2A64.6,64.6,0,0,1,81.84,156H76.5a11.77,11.77,0,0,1-11.76-11.75V129.1A11.78,11.78,0,0,1,76.5,117.34h5.87A64.94,64.94,0,0,1,87,106.45l-2.65-2.65a11.77,11.77,0,0,1,0-16.62l10.7-10.7a11.77,11.77,0,0,1,16.62,0l2.87,2.87A64.9,64.9,0,0,1,125.26,75V70.42A11.76,11.76,0,0,1,137,58.67h15.13a11.76,11.76,0,0,1,11.75,11.75v4.49a64.37,64.37,0,0,1,10.75,4.36l2.8-2.79a11.77,11.77,0,0,1,16.62,0l10.7,10.7a11.76,11.76,0,0,1,0,16.62l-2.5,2.5a64.36,64.36,0,0,1,4.75,11h5.64A11.77,11.77,0,0,1,224.4,129.1v15.13A11.76,11.76,0,0,1,212.65,156h-5.11a64.66,64.66,0,0,1-4.67,11.66l1.89,1.88a11.78,11.78,0,0,1,0,16.63l-10.7,10.69a11.75,11.75,0,0,1-16.62,0l-1.67-1.66a64.73,64.73,0,0,1-11.88,5v4.59A11.76,11.76,0,0,1,152.14,216.49ZM111.8,181.2l3.72,2.36a53.93,53.93,0,0,0,16.51,7l4.23,1v13.2a.75.75,0,0,0,.75.75h15.13a.76.76,0,0,0,.75-.75V191.58l4.25-1a54,54,0,0,0,16.59-7l3.72-2.34,7.76,7.76a.75.75,0,0,0,1.07,0L197,178.37a.77.77,0,0,0,0-1.07l-7.88-7.88,2.24-3.69a54,54,0,0,0,6.56-16.43l1-4.32h13.79a.76.76,0,0,0,.75-.75V129.1a.76.76,0,0,0-.75-.76H198.59l-1.05-4.16a54.36,54.36,0,0,0-6.82-15.82l-2.36-3.72L197,96a.74.74,0,0,0,.22-.53A.78.78,0,0,0,197,95l-10.7-10.69a.75.75,0,0,0-1.07,0L176.44,93l-3.68-2.22a54,54,0,0,0-15.62-6.33l-4.25-1V70.42a.76.76,0,0,0-.75-.75H137a.75.75,0,0,0-.75.75v13.1l-4.23,1a54,54,0,0,0-15.54,6.36l-3.69,2.23-8.87-8.86a.74.74,0,0,0-1.06,0L92.17,95a.75.75,0,0,0,0,1.07l8.76,8.76-2.35,3.71a54,54,0,0,0-6.74,15.7l-1,4.15H76.5a.76.76,0,0,0-.76.76v15.13a.76.76,0,0,0,.76.75h14l1,4.32A54,54,0,0,0,98,165.6l2.22,3.68-8,8a.75.75,0,0,0,0,1.07l10.7,10.69a.75.75,0,0,0,1.06,0Zm34.53-4.54A39.07,39.07,0,1,1,185.4,137.6,39.1,39.1,0,0,1,146.33,176.66Zm0-67.13A28.07,28.07,0,1,0,174.4,137.6,28.1,28.1,0,0,0,146.33,109.53Z"/></g></svg>