<svg xmlns="http://www.w3.org/2000/svg" viewBox="0 0 295.34 275.16"><defs><style>.cls-1{fill:#007934;}</style></defs><g id="Iconoes-generales"><path class="cls-1" d="M193.34,219.51H104.43a31.76,31.76,0,0,1-31.72-31.72V87.37a31.76,31.76,0,0,1,31.72-31.72h88.91a31.76,31.76,0,0,1,31.72,31.72V187.79A31.76,31.76,0,0,1,193.34,219.51ZM104.43,66.65A20.75,20.75,0,0,0,83.71,87.37V187.79a20.75,20.75,0,0,0,20.72,20.72h88.91a20.74,20.74,0,0,0,20.72-20.72V87.37a20.74,20.74,0,0,0-20.72-20.72Z"/><rect class="cls-1" x="106.6" y="96.65" width="84.63" height="16" rx="8"/><rect class="cls-1" x="106.6" y="131.99" width="84.63" height="16" rx="8"/><rect class="cls-1" x="106.6" y="167.33" width="84.63" height="16" rx="8"/></g></svg>