<svg xmlns="http://www.w3.org/2000/svg" viewBox="0 0 295.34 275.16"><defs><style>.cls-1{fill:none;stroke:#007934;stroke-miterlimit:10;stroke-width:11px;}.cls-2{fill:#007934;}.cls-3{fill:#7ad400;}</style></defs><g id="Iconoes-generales"><path class="cls-1" d="M92.91,207.87h3.27c2.9,0,5.26,1.76,5.26,3.92v13.28c0,2.17-2.36,3.92-5.26,3.92H76c-2.91,0-5.26-1.75-5.26-3.92V211.79c0-2.16,2.35-3.92,5.26-3.92h3.1"/><path class="cls-1" d="M183.47,207.87h3.27c2.91,0,5.26,1.76,5.26,3.92v13.28c0,2.17-2.35,3.92-5.26,3.92H166.61c-2.91,0-5.26-1.75-5.26-3.92V211.79c0-2.16,2.35-3.92,5.26-3.92h3.1"/><path class="cls-2" d="M211.88,195.94h-9.16a28,28,0,0,1-18.16,6.43H78.22c-14.26,0-25.86-10-25.86-22.24V73.91c0-12.27,11.6-22.24,25.86-22.24H184.56c14.26,0,25.86,10,25.86,22.24V89.18h1.46a11.41,11.41,0,0,1,9.54,5.18V73.91c0-18.33-16.53-33.24-36.86-33.24H78.22c-20.32,0-36.86,14.91-36.86,33.24V180.13c0,18.33,16.54,33.24,36.86,33.24H184.56c14.76,0,27.52-7.87,33.4-19.2A11.27,11.27,0,0,1,211.88,195.94Z"/><path class="cls-3" d="M249.7,133.35h-6.11a37.27,37.27,0,0,0-4.7-10.89l3.44-3.44a3.91,3.91,0,0,0,0-5.53l-6.68-6.69a3.92,3.92,0,0,0-5.53,0l-3.58,3.59A37.09,37.09,0,0,0,215.79,106v-5.44a3.91,3.91,0,0,0-3.91-3.91h-9.46a3.91,3.91,0,0,0-3.91,3.91v5.47a37.4,37.4,0,0,0-10.7,4.38l-3.63-3.64a3.92,3.92,0,0,0-5.53,0L172,113.49a3.92,3.92,0,0,0,0,5.53l3.53,3.53a37.24,37.24,0,0,0-4.63,10.8H164.6a3.91,3.91,0,0,0-3.91,3.91v9.46a3.91,3.91,0,0,0,3.91,3.9h6a37.06,37.06,0,0,0,4.46,11.23L172,165a3.92,3.92,0,0,0,0,5.53l6.69,6.68a3.91,3.91,0,0,0,5.53,0l3-3A37.45,37.45,0,0,0,198.51,179v5.53a3.91,3.91,0,0,0,3.91,3.9h9.46a3.91,3.91,0,0,0,3.91-3.9V179a37.33,37.33,0,0,0,11.42-4.78l2.91,2.91a3.9,3.9,0,0,0,5.53,0l6.68-6.68a3.9,3.9,0,0,0,0-5.53l-3-3a37.45,37.45,0,0,0,4.52-11.32h5.86a3.91,3.91,0,0,0,3.91-3.9v-9.46A3.91,3.91,0,0,0,249.7,133.35Zm-41.45,30.2a21,21,0,1,1,21-21A21,21,0,0,1,208.25,163.55Z"/><path class="cls-3" d="M163.32,116.25a11.34,11.34,0,0,1,3.34-8.06l6.69-6.69a11.42,11.42,0,0,1,11.52-2.79V84.13a12,12,0,0,0-12-12H95.64a12,12,0,0,0-12,12v24.3a12,12,0,0,0,12,12H164.1A11.43,11.43,0,0,1,163.32,116.25Z"/><path class="cls-3" d="M182.43,115.66l-1-1-1.6,1.6,1.08,1.08A12.81,12.81,0,0,0,182.43,115.66Z"/><path class="cls-2" d="M142.19,144.63v2.09a22.4,22.4,0,0,0,10.24,18.8c-.07.73-.11,1.47-.11,2.2a22.45,22.45,0,0,0,.22,3.18H95.64a1,1,0,0,1-1-1v-24.3a1,1,0,0,1,1-1h46.55m11.61-11H95.64a12,12,0,0,0-12,12v24.3a12,12,0,0,0,12,12h77.13l-6.11-6.11a11.41,11.41,0,0,1-.72-15.34c-.34-.77-.65-1.54-.94-2.33h-.4a11.42,11.42,0,0,1-11.41-11.4v-9.46a11.19,11.19,0,0,1,.61-3.63Z"/><circle class="cls-2" cx="103.97" cy="98.65" r="7.32"/><circle class="cls-2" cx="134.26" cy="98.65" r="7.32"/><circle class="cls-2" cx="164.56" cy="98.65" r="7.32"/></g></svg>