<svg xmlns="http://www.w3.org/2000/svg" viewBox="0 0 295.34 275.16"><defs><style>.cls-1,.cls-2{fill:#007934;}.cls-1{stroke:#007934;stroke-linecap:round;stroke-linejoin:round;stroke-width:8px;}.cls-3{fill:#7ad400;}</style></defs><g id="Iconoes-generales"><rect class="cls-1" x="125.9" y="108.39" width="61.55" height="6.23" rx="3.12"/><rect class="cls-1" x="136.8" y="135.15" width="46.31" height="6.23" rx="3.12"/><rect class="cls-1" x="122.5" y="161.9" width="64.95" height="6.23" rx="3.12"/><path class="cls-2" d="M112.21,128.09a15.73,15.73,0,0,1-7.08-8.42,6.85,6.85,0,0,1,.19-1.16,48.94,48.94,0,1,0-42.57,24.77,45,45,0,0,0,21.3-4.86,25.16,25.16,0,0,0,28.49.85,6.53,6.53,0,0,0-.33-11.18ZM96.27,107.16a35.73,35.73,0,0,1-3.72,7.15,6.49,6.49,0,0,0-1,4.72,29,29,0,0,0,1.88,6.54,30.06,30.06,0,0,0,2.15,4.14,12.1,12.1,0,0,1-5.67-3.56h0a6.52,6.52,0,0,0-8.35-1.25,35.75,35.75,0,1,1,14.73-17.74Z"/><path class="cls-2" d="M105.55,90.4H207.86a9.57,9.57,0,0,1,9.57,9.56v4.67a10.57,10.57,0,0,1,9.89,1.18,10.75,10.75,0,0,1,1.11-3.32V100A20.59,20.59,0,0,0,207.86,79.4H105.55a5.5,5.5,0,1,0,0,11Z"/><path class="cls-2" d="M227.26,174.5l-.31-.13a10.6,10.6,0,0,1-9.52.93v3.43a9.58,9.58,0,0,1-9.57,9.57H189.08L188,192.4c-.26,1-.82,3.14,2.26,9.71a29.65,29.65,0,0,0,11.35,12.69,18.75,18.75,0,0,1-11.38,2.66c-17.24-.84-27.25-18.67-28.95-25.07l-1.08-4.09H85.52A9.58,9.58,0,0,1,76,178.73V138.26a5.5,5.5,0,0,0-11,0v40.47A20.6,20.6,0,0,0,85.52,199.3h66.54c4.58,11.11,17.22,28.15,37.63,29.15.63,0,1.26.05,1.87.05a29.3,29.3,0,0,0,16.35-4.67,12.1,12.1,0,0,0,5.16-9.58,10.13,10.13,0,0,0-5.11-8.47,18.67,18.67,0,0,1-6.73-6.48h6.63a20.6,20.6,0,0,0,20.57-20.57v-.4A10.37,10.37,0,0,1,227.26,174.5Z"/><path class="cls-3" d="M274.94,133.17h-4.8a29.2,29.2,0,0,0-3.69-8.56l2.7-2.71a3.07,3.07,0,0,0,0-4.34l-5.25-5.26a3.08,3.08,0,0,0-4.35,0l-2.81,2.81a29.3,29.3,0,0,0-8.46-3.42v-4.28a3.07,3.07,0,0,0-3.07-3.07h-7.43a3.08,3.08,0,0,0-3.08,3.07v4.3a29.47,29.47,0,0,0-8.41,3.45l-2.85-2.86a3.08,3.08,0,0,0-4.35,0l-5.26,5.26a3.07,3.07,0,0,0,0,4.34l2.78,2.78a29.09,29.09,0,0,0-3.65,8.49H208a3.08,3.08,0,0,0-3.07,3.07v7.44a3.08,3.08,0,0,0,3.07,3.07h4.72a29.41,29.41,0,0,0,3.52,8.82L213.83,158a3.07,3.07,0,0,0,0,4.34l5.26,5.26a3.08,3.08,0,0,0,4.35,0l2.33-2.33a29.23,29.23,0,0,0,8.93,3.77v4.35a3.07,3.07,0,0,0,3.08,3.07h7.43a3.06,3.06,0,0,0,3.07-3.07v-4.32a29.39,29.39,0,0,0,9-3.76l2.29,2.29a3.08,3.08,0,0,0,4.35,0l5.25-5.26a3.07,3.07,0,0,0,0-4.34l-2.37-2.37a29.34,29.34,0,0,0,3.56-8.9h4.6a3.08,3.08,0,0,0,3.08-3.07v-7.44A3.08,3.08,0,0,0,274.94,133.17Zm-32.58,23.74a16.49,16.49,0,1,1,16.49-16.49A16.49,16.49,0,0,1,242.36,156.91Z"/><path class="cls-3" d="M96.18,124.4a25.24,25.24,0,0,1-1.69-5.87A3.55,3.55,0,0,1,95,116a38.33,38.33,0,0,0,4-7.75,38.89,38.89,0,1,0-15.95,19.22,3.51,3.51,0,0,1,1.86-.53,3.55,3.55,0,0,1,2.66,1.21A15.28,15.28,0,0,0,102,132.9,25.78,25.78,0,0,1,96.18,124.4ZM64,121.56a4.12,4.12,0,0,1-3,1.32,4.4,4.4,0,0,1-3.13-1.29,4.07,4.07,0,0,1-1.36-3.07,4.11,4.11,0,0,1,1.34-3.08A4.4,4.4,0,0,1,61,114.17a4.12,4.12,0,0,1,3,1.3,4.19,4.19,0,0,1,0,6.09Zm.63-23.22v6.88q0,3.52-3.82,3.84-3.65-.32-3.65-3.84V95.86A3.34,3.34,0,0,1,58.39,93a9.41,9.41,0,0,1,3-1.17c1.61-.39,2.68-.67,3.2-.86q6.1-1.52,6.11-8.27A9.68,9.68,0,0,0,68,75.5a9.8,9.8,0,0,0-7.21-2.69q-7.29,0-9.15,6.23-1.08,3.63-3.56,3.75a8.2,8.2,0,0,1-2.75-1.31,4.08,4.08,0,0,1-1.06-2.8A7.07,7.07,0,0,0,44.47,77q1-4.52,5.71-7.86A18.4,18.4,0,0,1,61.33,65.8a20.54,20.54,0,0,1,8.09,1.81q8.82,3.89,9.63,13.22Q79.05,95.2,64.64,98.34Z"/></g></svg>