<svg xmlns="http://www.w3.org/2000/svg" viewBox="0 0 295.34 275.16"><defs><style>.cls-1{fill:#007934;}.cls-2,.cls-3{fill:#7ad400;}.cls-3{stroke:#007934;stroke-miterlimit:10;stroke-width:11px;}</style></defs><g id="Iconoes-generales"><rect class="cls-1" x="76.19" y="183.62" width="84.63" height="16" rx="8"/><path class="cls-1" d="M185,193.84v0c-.44-.17-.87-.37-1.3-.55v8.81a20.75,20.75,0,0,1-20.72,20.72H74A20.74,20.74,0,0,1,53.3,202.08V101.66A20.74,20.74,0,0,1,74,80.94h88.91a20.75,20.75,0,0,1,20.72,20.72v8.73c.43-.18.86-.37,1.3-.54a11.42,11.42,0,0,1,9.55-11.2,31.76,31.76,0,0,0-31.57-28.71H74A31.76,31.76,0,0,0,42.3,101.66V202.08A31.76,31.76,0,0,0,74,233.8h88.91a31.76,31.76,0,0,0,31.57-28.71A11.42,11.42,0,0,1,185,193.84Z"/><path class="cls-1" d="M147.13,156v-7.74H84.19a8,8,0,0,0,0,16h66.5A11.36,11.36,0,0,1,147.13,156Z"/><path class="cls-1" d="M157.42,127.48a12.23,12.23,0,0,1-.16-1.92,11.3,11.3,0,0,1,3-7.65,8,8,0,0,0-7.4-5H84.19a8,8,0,0,0,0,16h68.63A7.94,7.94,0,0,0,157.42,127.48Z"/><path class="cls-2" d="M243.63,142.66h-6.11a37.25,37.25,0,0,0-4.69-10.89l3.44-3.44a3.9,3.9,0,0,0,0-5.53l-6.69-6.69a3.9,3.9,0,0,0-5.53,0l-3.58,3.58a37.14,37.14,0,0,0-10.75-4.36V109.9a3.91,3.91,0,0,0-3.91-3.91h-9.45a3.91,3.91,0,0,0-3.91,3.91v5.47a37,37,0,0,0-10.7,4.38l-3.63-3.64a3.9,3.9,0,0,0-5.53,0l-6.69,6.69a3.9,3.9,0,0,0,0,5.53l3.53,3.53a37.27,37.27,0,0,0-4.64,10.8h-6.25a3.91,3.91,0,0,0-3.91,3.91V156a3.91,3.91,0,0,0,3.91,3.91h6A37.39,37.39,0,0,0,169,171.15l-3.11,3.11a3.9,3.9,0,0,0,0,5.53l6.69,6.69a3.9,3.9,0,0,0,5.53,0l3-3a37.08,37.08,0,0,0,11.36,4.8v5.53a3.91,3.91,0,0,0,3.91,3.91h9.45a3.91,3.91,0,0,0,3.91-3.91v-5.49a37.37,37.37,0,0,0,11.42-4.78l2.91,2.91a3.9,3.9,0,0,0,5.53,0l6.69-6.69a3.9,3.9,0,0,0,0-5.53l-3-3a37.19,37.19,0,0,0,4.52-11.32h5.86a3.91,3.91,0,0,0,3.91-3.91v-9.45A3.91,3.91,0,0,0,243.63,142.66Zm-41.45,30.2a21,21,0,1,1,21-21A21,21,0,0,1,202.18,172.86Z"/><path class="cls-3" d="M149.34,60.71H131.57c0-.23,0-.47,0-.71a13.14,13.14,0,0,0-13.14-13.14h0A13.13,13.13,0,0,0,105.34,60c0,.24,0,.48,0,.71H87.61a8.43,8.43,0,0,0-8.43,8.43V83.45a8.43,8.43,0,0,0,8.43,8.43h61.73a8.43,8.43,0,0,0,8.42-8.43V69.14A8.43,8.43,0,0,0,149.34,60.71Z"/></g></svg>