<svg xmlns="http://www.w3.org/2000/svg" viewBox="0 0 295.34 275.16"><defs><style>.cls-1,.cls-3{fill:#7ad400;}.cls-1,.cls-2,.cls-4{stroke:#007934;}.cls-1,.cls-4{stroke-miterlimit:10;stroke-width:11px;}.cls-2{fill:#007934;stroke-linejoin:round;stroke-width:3px;}.cls-2,.cls-4{stroke-linecap:round;}.cls-4{fill:none;}</style></defs><g id="Iconoes-generales"><circle class="cls-1" cx="115.95" cy="89.99" r="39.7"/><path class="cls-2" d="M127.65,90.61a11.41,11.41,0,0,0-8.1-3.35h-2.49v-13h10.71a3,3,0,0,0,1.61-.48,2.19,2.19,0,0,0,.92-1.17,2.87,2.87,0,0,0,.13-.84,2.48,2.48,0,0,0-2.49-2.49H117.06V67.56a2.94,2.94,0,0,0-.47-1.6,2.18,2.18,0,0,0-1.17-.92,2.65,2.65,0,0,0-.85-.14,2.5,2.5,0,0,0-2.49,2.49v1.94h-2.49a11.46,11.46,0,0,0,0,22.91h2.49v13h-10.8a3,3,0,0,0-1.6.47,2.18,2.18,0,0,0-.92,1.17,3.35,3.35,0,0,0-.14.85,2.5,2.5,0,0,0,2.5,2.49h11v1.76a2.49,2.49,0,0,0,5,0v-1.76h2.49a11.46,11.46,0,0,0,8.1-19.56Zm-15.57-3.35h-2.79a6.17,6.17,0,0,1-6.17-6.17v-.25a6.54,6.54,0,0,1,6.53-6.53h2.43Zm14,11.42a6.52,6.52,0,0,1-6.52,6.51h-2.45v-13h2.8A6.17,6.17,0,0,1,126,98.41Z"/><path class="cls-3" d="M246.44,92.71h-5.23a31.87,31.87,0,0,0-4-9.32l2.94-2.94a3.34,3.34,0,0,0,0-4.73L234.42,70a3.33,3.33,0,0,0-4.72,0l-3.07,3.06a31.93,31.93,0,0,0-9.19-3.73V64.69a3.35,3.35,0,0,0-3.34-3.34H206a3.35,3.35,0,0,0-3.34,3.34v4.68a32.12,32.12,0,0,0-9.15,3.74L190.41,70a3.33,3.33,0,0,0-4.72,0L180,75.72a3.34,3.34,0,0,0,0,4.73l3,3a31.85,31.85,0,0,0-4,9.24h-5.35a3.34,3.34,0,0,0-3.34,3.34v8.09a3.35,3.35,0,0,0,3.34,3.34h5.14a31.62,31.62,0,0,0,3.82,9.59L180,119.73a3.34,3.34,0,0,0,0,4.73l5.72,5.72a3.34,3.34,0,0,0,4.72,0l2.54-2.54a32.14,32.14,0,0,0,9.72,4.11v4.73a3.35,3.35,0,0,0,3.34,3.34h8.09a3.35,3.35,0,0,0,3.34-3.34v-4.7a32.24,32.24,0,0,0,9.77-4.09l2.49,2.49a3.34,3.34,0,0,0,4.72,0l5.72-5.72a3.34,3.34,0,0,0,0-4.73l-2.58-2.58a31.57,31.57,0,0,0,3.87-9.67h5a3.35,3.35,0,0,0,3.34-3.34V96.05A3.34,3.34,0,0,0,246.44,92.71ZM211,118.53a17.94,17.94,0,1,1,17.93-17.94A17.94,17.94,0,0,1,211,118.53Z"/><path class="cls-4" d="M132.84,188.44H164.5c23.08,0,23.65-24.66,0-24.66s-27-15.58-45.79-15.58h-35v49.32S112,213.1,133.54,219.59s50.9-9.73,50.9-9.73,52.41-26.18,56.76-29.72c3.84-3.13,7.64-6.94,8.31-10.24a12.59,12.59,0,0,0-1.14-8.37c-5.52-11.05-18.82-4.5-18.82-4.5l-50.48,25.33"/><rect class="cls-1" x="45.56" y="137.56" width="38.11" height="70.61" rx="11.61"/></g></svg>