<svg id="Layer_1" data-name="Layer 1" xmlns="http://www.w3.org/2000/svg" viewBox="0 0 28.6 32.17"><defs><style>.cls-1{fill:#fff;}</style></defs><path class="cls-1" d="M28.59,31.23A14.48,14.48,0,0,0,24,22.84a17,17,0,0,0-3.87-2.74,1.06,1.06,0,0,0-1.5.26.58.58,0,0,1-.08.1,7.58,7.58,0,0,1-.79.82,5,5,0,0,1-6.26.65,7.18,7.18,0,0,1-1.1-.91,1.41,1.41,0,0,1-.16-.21,3.17,3.17,0,0,0-.53-.58A.83.83,0,0,0,9.1,20h0a2.27,2.27,0,0,0-1.25.56l-.17.11a19,19,0,0,0-2,1.36A15.34,15.34,0,0,0,.25,30c-.1.4-.18.81-.24,1.21a.82.82,0,0,0,.7.94.81.81,0,0,0,.93-.7c.06-.34.13-.7.21-1A13.72,13.72,0,0,1,6.7,23.28a16.58,16.58,0,0,1,1.78-1.23l.27-.18.16-.11,0,0c.1.13.2.26.31.38A9.33,9.33,0,0,0,10.6,23.3a6.54,6.54,0,0,0,8.28-.79,8.54,8.54,0,0,0,.8-.79A15.52,15.52,0,0,1,22.89,24,12.86,12.86,0,0,1,27,31.46a.83.83,0,0,0,.82.71h.11A.82.82,0,0,0,28.59,31.23Z"/><path class="cls-1" d="M7.5,25.52a16.08,16.08,0,0,0-2.93,3.79.83.83,0,1,0,1.45.8,14.47,14.47,0,0,1,2.62-3.4.82.82,0,0,0,0-1.17A.81.81,0,0,0,7.5,25.52Z"/><path class="cls-1" d="M8.11,15.84c.21.43.44.86.69,1.27,1.51,2.45,3.41,3.81,5.34,3.81a4.22,4.22,0,0,0,1.36-.23,2.36,2.36,0,0,1-.86-1.5,2.73,2.73,0,0,1-.5,0c-3,0-5.7-5.42-5.7-8.7a5.71,5.71,0,0,1,11.41,0,11.48,11.48,0,0,1-1.29,4.8,2.91,2.91,0,0,1,1.29,1.14c.19-.36.37-.73.54-1.1l-.21.46a5.15,5.15,0,0,0,.56-.16v1.14a.85.85,0,0,1-.85.85h-1.1a1.56,1.56,0,1,0,0,1.65h1.12a2.5,2.5,0,0,0,2.5-2.5v-2.2a4.35,4.35,0,0,0,1.23-3,4.41,4.41,0,0,0-.43-1.89,1.09,1.09,0,0,0,0-.26V7.51A7.52,7.52,0,0,0,15.72,0H12.86a7.51,7.51,0,0,0-7.5,7.51V9.25a4.26,4.26,0,0,0-.69,2.34A4.34,4.34,0,0,0,8.11,15.84Zm12.66-1.4c0,.05-.05.11-.07.17a1.46,1.46,0,0,0,.07-.19Zm.05-.15h0l0-.06ZM7,7.51a5.87,5.87,0,0,1,5.85-5.86h2.86a5.87,5.87,0,0,1,5.86,5.86v.4a5.45,5.45,0,0,0-.68-.35h0a7.39,7.39,0,0,0-13.51,0h0A2.64,2.64,0,0,0,7,7.74Z"/></svg>