<?xml version="1.0" encoding="utf-8"?>
<!-- Generator: Adobe Illustrator 24.2.3, SVG Export Plug-In . SVG Version: 6.00 Build 0)  -->
<svg version="1.1" id="Layer_1" xmlns="http://www.w3.org/2000/svg" xmlns:xlink="http://www.w3.org/1999/xlink" x="0px" y="0px"
	 viewBox="0 0 68.83 30.35" style="enable-background:new 0 0 68.83 30.35;" xml:space="preserve">
<style type="text/css">
	.st0{fill:#7CB800;}
	.st1{fill:#007934;}
</style>
<g id="Group_13_28_" transform="translate(452 374.5)">
	<path id="Path_11_15_" class="st0" d="M-404.34-357.21v-3.83c-0.03-2.11-1.76-3.8-3.87-3.77c-2.07,0.03-3.75,1.7-3.77,3.77v3.82
		c0,0.99-0.81,1.8-1.8,1.8c-0.98,0.02-1.79-0.76-1.8-1.74c0-0.02,0-0.04,0-0.06l0.02-3.54c0.12-5.25,3.86-7.65,7.37-7.75
		c2.17-0.05,4.25,0.92,5.61,2.62c1.38-1.69,3.44-2.68,5.63-2.67c4.38,0,7.64,3.78,7.82,8.15c0.15,3.93-1.43,10.48-9.8,13.76
		c-0.93,0.31-1.94-0.19-2.25-1.12c-0.07-0.22-0.1-0.45-0.09-0.67c0.05-0.84,0.64-1.54,1.46-1.73c4.7-1.19,7.81-5.67,7.29-10.49
		c-0.35-2.39-1.76-4.14-4.33-4.19c-2.11-0.07-3.88,1.59-3.95,3.7c0,0.04,0,0.08,0,0.12v3.83c0.02,0.97-0.74,1.77-1.71,1.79
		c-0.02,0-0.04,0-0.06,0c-0.96,0.01-1.74-0.75-1.75-1.71C-404.34-357.15-404.34-357.18-404.34-357.21"/>
	<g>
		<path class="st1" d="M-389.26-371.45c0-1.68,1.37-3.05,3.05-3.05c1.68,0,3.05,1.37,3.05,3.05c0,1.68-1.36,3.05-3.05,3.05
			C-387.9-368.4-389.26-369.77-389.26-371.45 M-388.98-371.45c0,1.53,1.24,2.77,2.77,2.77c1.53,0,2.77-1.24,2.77-2.77
			c0-1.53-1.24-2.77-2.77-2.77C-387.74-374.22-388.98-372.98-388.98-371.45"/>
		<path class="st1" d="M-386.88-372.6h0.54c0.32,0,0.65,0.08,0.65,0.49c0,0.41-0.32,0.49-0.65,0.49h-0.54 M-387.29-369.94h0.41
			v-1.33h0.46l0.77,1.33h0.51l-0.86-1.38c0.46-0.05,0.74-0.41,0.74-0.8c0-0.38-0.2-0.84-0.97-0.84h-1.06V-369.94z"/>
	</g>
	<path id="Path_12_15_" class="st1" d="M-425.83-368.57h-0.09c-4.41-0.02-8.02,3.52-8.06,7.94v14.71c-0.06,0.92,0.64,1.71,1.56,1.77
		c0.02,0,0.04,0,0.07,0c0.9,0,1.64-0.72,1.64-1.63c0-0.05,0-0.1-0.01-0.15v-8.01c1.37,1.02,3.01,1.6,4.72,1.67c0.06,0,0.11,0,0.17,0
		c4.51,0.09,8.23-3.49,8.32-8c0.09-4.51-3.49-8.23-8-8.32C-425.62-368.57-425.72-368.57-425.83-368.57 M-425.83-355.1h-0.04
		c-2.86,0-5.17-2.31-5.17-5.17s2.31-5.17,5.17-5.17c0,0,0,0,0,0h0.04c2.86-0.03,5.2,2.26,5.23,5.11c0.03,2.86-2.26,5.2-5.11,5.23
		C-425.76-355.1-425.79-355.1-425.83-355.1"/>
	<path id="Path_13_21_" class="st1" d="M-448.03-359.64h9.35c3.08-0.01,2.76-3.2,1.59-5.27c-1.42-2.49-4.09-4.01-6.96-3.96h-0.02
		c-4.4,0.12-7.92,3.71-7.93,8.12c-0.1,4.43,3.41,8.1,7.84,8.2c0.03,0,0.05,0,0.08,0h0.03c1.99,0,3.92-0.64,5.51-1.84
		c1.36-1.15-0.16-3.41-1.95-2.16c-1.04,0.71-2.27,1.07-3.53,1.04h-0.03c-1.99-0.04-3.76-1.24-4.54-3.06
		C-448.75-359.01-448.91-359.64-448.03-359.64 M-448.46-363.29c0.88-1.63,2.56-2.66,4.42-2.71h0.09c1.8-0.02,3.46,1,4.27,2.61
		c0.24,0.47,0.16,1-0.36,1h-7.84c-0.33,0.03-0.63-0.2-0.66-0.53C-448.56-363.05-448.53-363.18-448.46-363.29"/>
</g>
</svg>
