<svg id="Layer_1" data-name="Layer 1" xmlns="http://www.w3.org/2000/svg" viewBox="0 0 68.83 30.35"><defs><style>.cls-1{fill:#fff;}</style></defs><g id="Group_13" data-name="Group 13"><path id="Path_11" data-name="Path 11" class="cls-1" d="M47.66,17.29V13.47a3.82,3.82,0,0,0-7.64,0v3.81a1.8,1.8,0,0,1-1.8,1.8,1.77,1.77,0,0,1-1.81-1.73v-.07l0-3.54C36.55,8.49,40.3,6.09,43.8,6a7,7,0,0,1,5.61,2.62A7.25,7.25,0,0,1,55,5.93c4.38,0,7.64,3.78,7.81,8.15C63,18,61.43,24.57,53.05,27.84a1.77,1.77,0,0,1-2.25-1.12,1.87,1.87,0,0,1-.09-.67,1.9,1.9,0,0,1,1.46-1.73,9.75,9.75,0,0,0,7.29-10.49c-.35-2.39-1.76-4.14-4.33-4.18a3.82,3.82,0,0,0-4,3.69v3.95a1.75,1.75,0,0,1-1.71,1.79h-.06a1.72,1.72,0,0,1-1.75-1.7v-.09"/><path class="cls-1" d="M62.74,3.05A3,3,0,1,1,65.79,6.1a3,3,0,0,1-3.05-3m.28,0A2.77,2.77,0,1,0,65.79.28,2.77,2.77,0,0,0,63,3.05"/><path class="cls-1" d="M65.12,1.9h.54c.32,0,.65.07.65.48s-.33.49-.65.49h-.54m-.41,1.69h.41V3.23h.46l.77,1.33h.51L66,3.18a.8.8,0,0,0,.74-.8c0-.38-.19-.84-1-.84H64.71Z"/><path id="Path_12" data-name="Path 12" class="cls-1" d="M26.17,5.93h-.09A8,8,0,0,0,18,13.87V28.58a1.67,1.67,0,0,0,1.56,1.77h.07a1.62,1.62,0,0,0,1.64-1.62.76.76,0,0,0,0-.15v-8A8.51,8.51,0,0,0,26,22.25h.17a8.16,8.16,0,1,0,.32-16.32h-.32m0,13.47h0a5.17,5.17,0,1,1,0-10.34h.05a5.17,5.17,0,1,1,.11,10.34h-.11"/><path id="Path_13" data-name="Path 13" class="cls-1" d="M4,14.86h9.35c3.08,0,2.76-3.2,1.59-5.27a7.86,7.86,0,0,0-7-4h0A8.16,8.16,0,0,0,0,13.75,8,8,0,0,0,7.84,22H8a9,9,0,0,0,5.51-1.84,1.46,1.46,0,1,0-2-2.16A6,6,0,0,1,8,19H8a5.06,5.06,0,0,1-4.54-3.06c-.16-.44-.32-1.07.56-1.07m-.43-3.65A5.12,5.12,0,0,1,8,8.51H8a4.72,4.72,0,0,1,4.27,2.6c.25.47.16,1-.36,1H4.12a.61.61,0,0,1-.66-.54.54.54,0,0,1,.08-.37"/></g></svg>