<svg id="Layer_1" data-name="Layer 1" xmlns="http://www.w3.org/2000/svg" viewBox="0 0 60.85 25.79"><defs><style>.cls-1,.cls-2{fill:#fff;}.cls-2{fill-rule:evenodd;}</style></defs><g id="superservicios"><path id="Path_48" data-name="Path 48" class="cls-1" d="M21.9,14.46h-.42L19.84,10h.85l1,3,1.06-3h.84Z"/><path id="Path_49" data-name="Path 49" class="cls-1" d="M24.22,14.4V11.82h-.41v-.61H25V14.4ZM24.6,10a.44.44,0,0,1,.31.13.43.43,0,0,1,.13.3.48.48,0,0,1-.13.31.45.45,0,0,1-.61,0,.48.48,0,0,1-.13-.31A.44.44,0,0,1,24.6,10"/><path id="Path_50" data-name="Path 50" class="cls-1" d="M25.61,15.22l.47-.58a1.36,1.36,0,0,0,1.4.26.29.29,0,0,0,.21-.26c0-.19-.16-.29-.47-.29l-.37,0-.37,0c-.51,0-.77-.19-.77-.56a.52.52,0,0,1,.12-.31,1.33,1.33,0,0,1,.3-.23,1.11,1.11,0,0,1-.53-1,1,1,0,0,1,.37-.84,1.3,1.3,0,0,1,.92-.34,1.45,1.45,0,0,1,.71.16l.3-.34.52.47-.36.26a1.28,1.28,0,0,1-.14,1.53,1.17,1.17,0,0,1-.85.33h-.21l-.12,0a.44.44,0,0,0-.16.06c-.09.05-.14.09-.14.14s.07.12.2.12a1.54,1.54,0,0,0,.31-.05,1.55,1.55,0,0,1,.37,0c.73,0,1.1.29,1.1.87a.87.87,0,0,1-.44.76,2,2,0,0,1-1.05.27,2.14,2.14,0,0,1-1.33-.43m.75-2.89a.69.69,0,0,0,.15.46.57.57,0,0,0,.42.17.49.49,0,0,0,.41-.17.75.75,0,0,0,.15-.46.62.62,0,0,0-.16-.41.5.5,0,0,0-.4-.16.55.55,0,0,0-.58.51v.06"/><path id="Path_51" data-name="Path 51" class="cls-1" d="M29.11,14.4V11.82H28.7v-.61h1.16V14.4ZM29.49,10a.44.44,0,0,1,.31.13.43.43,0,0,1,.13.3.48.48,0,0,1-.13.31.45.45,0,0,1-.31.12.42.42,0,0,1-.3-.12.41.41,0,0,1-.14-.31.37.37,0,0,1,.14-.3.42.42,0,0,1,.3-.13"/><path id="Path_52" data-name="Path 52" class="cls-1" d="M30.85,10l.75-.18v3.59c0,.39.12.62.35.7a.6.6,0,0,1-.59.33c-.33,0-.51-.23-.51-.7Z"/><path id="Path_53" data-name="Path 53" class="cls-1" d="M34.3,14.08a.7.7,0,0,1-.35.28,1.5,1.5,0,0,1-.52.1,1.19,1.19,0,0,1-.81-.26.88.88,0,0,1-.3-.73,1.05,1.05,0,0,1,.42-.87,1.89,1.89,0,0,1,1.18-.31,1.06,1.06,0,0,1,.31.05c0-.38-.23-.57-.72-.57a1.54,1.54,0,0,0-.7.14l-.16-.58a2.23,2.23,0,0,1,.92-.19,1.48,1.48,0,0,1,1.07.34A1.76,1.76,0,0,1,35,12.73v.69c0,.42.09.69.25.8a.39.39,0,0,1-.2.2.78.78,0,0,1-.26,0,.4.4,0,0,1-.29-.12.68.68,0,0,1-.18-.26m-.06-1.18a1.45,1.45,0,0,0-.29,0c-.59,0-.88.19-.88.57s.16.43.5.43a.59.59,0,0,0,.67-.49.54.54,0,0,0,0-.18Z"/><path id="Path_54" data-name="Path 54" class="cls-1" d="M37.83,14.4v-.2a.61.61,0,0,1-.31.18,1.44,1.44,0,0,1-.46.08A1.33,1.33,0,0,1,36,14a1.63,1.63,0,0,1-.39-1.17,1.71,1.71,0,0,1,.44-1.23,1.42,1.42,0,0,1,1.1-.49,1.37,1.37,0,0,1,.66.16V10l.75-.18V14.4Zm0-2.43a.73.73,0,0,0-.49-.19.92.92,0,0,0-.69.26,1.19,1.19,0,0,0-.24.79c0,.67.32,1,1,1a.58.58,0,0,0,.26-.06.39.39,0,0,0,.2-.13Z"/><path id="Path_55" data-name="Path 55" class="cls-1" d="M39.11,12.79a1.71,1.71,0,0,1,.43-1.18,1.49,1.49,0,0,1,1.12-.47,1.44,1.44,0,0,1,1.12.45,2,2,0,0,1,0,2.42,1.64,1.64,0,0,1-2.26,0,1.78,1.78,0,0,1-.4-1.22m.77,0c0,.71.25,1.06.77,1.06a.66.66,0,0,0,.55-.27,1.36,1.36,0,0,0,.21-.79c0-.68-.26-1-.76-1a.69.69,0,0,0-.56.28,1.29,1.29,0,0,0-.21.76"/><path id="Path_56" data-name="Path 56" class="cls-1" d="M20.06,19.72l.28-.69a1.59,1.59,0,0,0,.91.32c.45,0,.69-.15.69-.47a.63.63,0,0,0-.17-.43,2,2,0,0,0-.66-.45,3.66,3.66,0,0,1-.68-.42,1.1,1.1,0,0,1-.27-.38,1.43,1.43,0,0,1-.09-.5,1.08,1.08,0,0,1,.37-.84,1.32,1.32,0,0,1,.95-.33,1.78,1.78,0,0,1,1.12.28l-.24.67a1.5,1.5,0,0,0-.87-.3.5.5,0,0,0-.4.15.47.47,0,0,0-.16.37q0,.38.84.78a2.55,2.55,0,0,1,.63.39,1.1,1.1,0,0,1,.29.42,1.24,1.24,0,0,1,.1.54,1,1,0,0,1-.42.86,1.63,1.63,0,0,1-1.12.35,2,2,0,0,1-1.1-.31"/><path id="Path_57" data-name="Path 57" class="cls-1" d="M25.4,20V19.7a1.19,1.19,0,0,1-.43.23,1.84,1.84,0,0,1-.51.1c-.74,0-1.12-.4-1.12-1.18V16.78h.75v2c0,.41.18.61.56.61a.88.88,0,0,0,.47-.13.68.68,0,0,0,.28-.3V16.78h.75V20Z"/><path id="Path_58" data-name="Path 58" class="cls-1" d="M27.64,19.88v1.34H26.9V16.77h.74V17a.9.9,0,0,1,.69-.28c1,0,1.52.56,1.52,1.68a1.62,1.62,0,0,1-.42,1.21,1.58,1.58,0,0,1-1.15.42,1.43,1.43,0,0,1-.64-.15m0-2.32v1.68a.75.75,0,0,0,.47.17,1,1,0,0,0,.75-.25,1.5,1.5,0,0,0,0-1.58,1,1,0,0,0-.75-.22.63.63,0,0,0-.47.2"/><path id="Path_59" data-name="Path 59" class="cls-1" d="M33.36,18.6H31.08a.79.79,0,0,0,.26.59,1,1,0,0,0,.66.21,1,1,0,0,0,.77-.26l.29.57a1.82,1.82,0,0,1-1.18.32,1.59,1.59,0,0,1-1.15-.43,1.61,1.61,0,0,1-.42-1.19,1.65,1.65,0,0,1,.46-1.23,1.55,1.55,0,0,1,1.12-.47,1.57,1.57,0,0,1,1.11.42,1.41,1.41,0,0,1,.43,1.06,1.85,1.85,0,0,1-.07.41M31.11,18h1.57a.71.71,0,0,0-.69-.71H31.9a.75.75,0,0,0-.79.7"/><path id="Path_60" data-name="Path 60" class="cls-1" d="M35.87,17.47a.79.79,0,0,0-.45-.13.58.58,0,0,0-.45.24.8.8,0,0,0-.2.57V20H34v-3.2h.75v.29a1.06,1.06,0,0,1,.83-.35,1.2,1.2,0,0,1,.59.12Z"/><path id="Path_61" data-name="Path 61" class="cls-1" d="M36.43,19.76l.27-.59a1.2,1.2,0,0,0,.75.26c.29,0,.43-.1.43-.31a.42.42,0,0,0-.12-.3,3.15,3.15,0,0,0-.51-.28c-.56-.22-.83-.54-.83-.95a.76.76,0,0,1,.32-.65,1.32,1.32,0,0,1,.8-.23,2,2,0,0,1,.93.22l-.2.58a1.07,1.07,0,0,0-.69-.21c-.26,0-.39.11-.39.31a.34.34,0,0,0,.13.23,2.31,2.31,0,0,0,.55.26,1.44,1.44,0,0,1,.6.4.91.91,0,0,1,.19.57.82.82,0,0,1-.33.7,1.38,1.38,0,0,1-.9.26,2.24,2.24,0,0,1-.52-.05,3.06,3.06,0,0,1-.49-.22"/><path id="Path_62" data-name="Path 62" class="cls-1" d="M42.11,18.6H39.82a.82.82,0,0,0,.27.59,1,1,0,0,0,.65.21,1.07,1.07,0,0,0,.78-.26l.29.57a1.81,1.81,0,0,1-1.17.32,1.56,1.56,0,0,1-1.16-.43,1.59,1.59,0,0,1-.43-1.19,1.69,1.69,0,0,1,.46-1.23,1.65,1.65,0,0,1,2.24-.05,1.4,1.4,0,0,1,.42,1.06,2.7,2.7,0,0,1-.06.41M39.86,18h1.57a.71.71,0,0,0-.7-.71h-.08a.75.75,0,0,0-.79.7"/><path id="Path_63" data-name="Path 63" class="cls-1" d="M44.61,17.47a.75.75,0,0,0-.43-.13.56.56,0,0,0-.46.24.8.8,0,0,0-.2.57V20h-.75v-3.2h.75v.29a1,1,0,0,1,.83-.35,1.17,1.17,0,0,1,.58.12Z"/><path id="Path_64" data-name="Path 64" class="cls-1" d="M46.7,20h-.27L45,16.77h.82l.77,1.95.81-1.95h.79Z"/><path id="Path_65" data-name="Path 65" class="cls-1" d="M48.8,20V17.39h-.42v-.62h1.16V20Zm.38-4.44a.43.43,0,0,1,.3.13.43.43,0,0,1,0,.6h0a.43.43,0,0,1-.3.13.4.4,0,0,1-.31-.13.43.43,0,0,1,0-.61.44.44,0,0,1,.31-.13"/><path id="Path_66" data-name="Path 66" class="cls-1" d="M52.92,17l-.32.56a.94.94,0,0,0-.7-.24.81.81,0,0,0-.67.28,1.21,1.21,0,0,0-.25.78c0,.67.32,1,1,1a1.08,1.08,0,0,0,.73-.27l.27.58a1.68,1.68,0,0,1-.56.26,2.76,2.76,0,0,1-.57.06,1.68,1.68,0,0,1-1.13-2.85A1.82,1.82,0,0,1,52.92,17"/><path id="Path_67" data-name="Path 67" class="cls-1" d="M53.74,20V17.39h-.41v-.62H54.5V20Zm.38-4.44a.44.44,0,0,1,.31.13.43.43,0,0,1-.61.61h0a.43.43,0,0,1,0-.61h0a.43.43,0,0,1,.3-.13"/><path id="Path_68" data-name="Path 68" class="cls-1" d="M55.15,18.36a1.7,1.7,0,0,1,.43-1.19,1.44,1.44,0,0,1,1.11-.46,1.48,1.48,0,0,1,1.13.44,1.77,1.77,0,0,1,.4,1.21,1.7,1.7,0,0,1-.41,1.22,1.46,1.46,0,0,1-1.12.44,1.44,1.44,0,0,1-1.14-.45,1.82,1.82,0,0,1-.4-1.21m.78,0c0,.7.26,1.06.76,1.06a.71.71,0,0,0,.56-.27,1.3,1.3,0,0,0,.2-.79c0-.69-.25-1-.76-1a.69.69,0,0,0-.55.27,1.25,1.25,0,0,0-.21.77"/><path id="Path_69" data-name="Path 69" class="cls-1" d="M58.62,19.76l.26-.59a1.25,1.25,0,0,0,.76.26c.29,0,.44-.1.44-.31a.41.41,0,0,0-.14-.3,2.09,2.09,0,0,0-.51-.28c-.55-.22-.82-.54-.82-.95a.77.77,0,0,1,.31-.65,1.37,1.37,0,0,1,.81-.23,2.16,2.16,0,0,1,.94.22l-.22.58a1,1,0,0,0-.68-.21c-.25,0-.39.11-.39.31a.34.34,0,0,0,.13.23,2.77,2.77,0,0,0,.55.26,1.44,1.44,0,0,1,.6.4.91.91,0,0,1,.19.57.84.84,0,0,1-.33.7,1.4,1.4,0,0,1-.9.26,2.1,2.1,0,0,1-.51-.05,3.16,3.16,0,0,1-.5-.22"/><path id="Path_70" data-name="Path 70" class="cls-2" d="M7.3,25.78a2.81,2.81,0,0,1-1-.35L0,21.7a3.82,3.82,0,0,1,1.22-2.42,3.19,3.19,0,0,1,3.46-.1L7.3,20.73Z"/><path id="Path_71" data-name="Path 71" class="cls-2" d="M7.3,20.73l7.1-4.21v5.3L8.31,25.43a3.05,3.05,0,0,1-1,.36Z"/><path id="Path_72" data-name="Path 72" class="cls-2" d="M4.87,13l2.44-1.45,2.62,1.56A3.17,3.17,0,0,0,13.39,13a3.76,3.76,0,0,0,1.21-2.42L8.33,6.82a3,3,0,0,0-1-.36,2.65,2.65,0,0,0-1,.36L.4,10.31Z"/><path id="Path_73" data-name="Path 73" class="cls-2" d="M.2,15.74v-5.3l7.1,4.23V20Z"/><path id="Path_74" data-name="Path 74" class="cls-2" d="M7.31,5.7a2.85,2.85,0,1,1,2.85-2.85A2.85,2.85,0,0,1,7.31,5.7"/></g></svg>